<mxfile host="Electron" modified="2024-02-01T01:21:35.541Z" agent="Mozilla/5.0 (Windows NT 10.0; Win64; x64) AppleWebKit/537.36 (KHTML, like Gecko) draw.io/23.0.2 Chrome/120.0.6099.109 Electron/28.1.0 Safari/537.36" etag="Lv40oaY4VXNYDc7kf3b8" version="23.0.2" type="device">
  <diagram name="Page-1" id="NSd08ep-fCc6EOI4kSMS">
    <mxGraphModel dx="1434" dy="836" grid="1" gridSize="10" guides="1" tooltips="1" connect="1" arrows="1" fold="1" page="0" pageScale="1" pageWidth="827" pageHeight="1169" math="0" shadow="0">
      <root>
        <mxCell id="0" />
        <mxCell id="1" parent="0" />
        <mxCell id="sLSlKUdKtj0iEJOvzMcT-17" value="Sensor" style="swimlane;fontStyle=1;align=center;verticalAlign=top;childLayout=stackLayout;horizontal=1;startSize=26;horizontalStack=0;resizeParent=1;resizeParentMax=0;resizeLast=0;collapsible=1;marginBottom=0;whiteSpace=wrap;html=1;" vertex="1" parent="1">
          <mxGeometry x="66.25" y="340" width="227.5" height="120" as="geometry" />
        </mxCell>
        <mxCell id="sLSlKUdKtj0iEJOvzMcT-18" value="- alt: float&lt;br&gt;- range: float" style="text;strokeColor=none;fillColor=none;align=left;verticalAlign=top;spacingLeft=4;spacingRight=4;overflow=hidden;rotatable=0;points=[[0,0.5],[1,0.5]];portConstraint=eastwest;whiteSpace=wrap;html=1;" vertex="1" parent="sLSlKUdKtj0iEJOvzMcT-17">
          <mxGeometry y="26" width="227.5" height="44" as="geometry" />
        </mxCell>
        <mxCell id="sLSlKUdKtj0iEJOvzMcT-19" value="" style="line;strokeWidth=1;fillColor=none;align=left;verticalAlign=middle;spacingTop=-1;spacingLeft=3;spacingRight=3;rotatable=0;labelPosition=right;points=[];portConstraint=eastwest;strokeColor=inherit;" vertex="1" parent="sLSlKUdKtj0iEJOvzMcT-17">
          <mxGeometry y="70" width="227.5" height="8" as="geometry" />
        </mxCell>
        <mxCell id="sLSlKUdKtj0iEJOvzMcT-20" value="+ collide(elevatorAlt: float): boolean" style="text;strokeColor=none;fillColor=none;align=left;verticalAlign=top;spacingLeft=4;spacingRight=4;overflow=hidden;rotatable=0;points=[[0,0.5],[1,0.5]];portConstraint=eastwest;whiteSpace=wrap;html=1;" vertex="1" parent="sLSlKUdKtj0iEJOvzMcT-17">
          <mxGeometry y="78" width="227.5" height="42" as="geometry" />
        </mxCell>
        <mxCell id="sLSlKUdKtj0iEJOvzMcT-21" value="Elevator" style="swimlane;fontStyle=1;align=center;verticalAlign=top;childLayout=stackLayout;horizontal=1;startSize=26;horizontalStack=0;resizeParent=1;resizeParentMax=0;resizeLast=0;collapsible=1;marginBottom=0;whiteSpace=wrap;html=1;" vertex="1" parent="1">
          <mxGeometry x="680" y="125" width="310" height="194" as="geometry" />
        </mxCell>
        <mxCell id="sLSlKUdKtj0iEJOvzMcT-22" value="- alt: float&lt;br&gt;- vel: float&lt;br&gt;- elevatorSocket: DatagramSocket&lt;br&gt;" style="text;strokeColor=none;fillColor=none;align=left;verticalAlign=top;spacingLeft=4;spacingRight=4;overflow=hidden;rotatable=0;points=[[0,0.5],[1,0.5]];portConstraint=eastwest;whiteSpace=wrap;html=1;" vertex="1" parent="sLSlKUdKtj0iEJOvzMcT-21">
          <mxGeometry y="26" width="310" height="134" as="geometry" />
        </mxCell>
        <mxCell id="sLSlKUdKtj0iEJOvzMcT-23" value="" style="line;strokeWidth=1;fillColor=none;align=left;verticalAlign=middle;spacingTop=-1;spacingLeft=3;spacingRight=3;rotatable=0;labelPosition=right;points=[];portConstraint=eastwest;strokeColor=inherit;" vertex="1" parent="sLSlKUdKtj0iEJOvzMcT-21">
          <mxGeometry y="160" width="310" height="8" as="geometry" />
        </mxCell>
        <mxCell id="sLSlKUdKtj0iEJOvzMcT-24" value="+ getPosition(floor: int, direction: Direction): int" style="text;strokeColor=none;fillColor=none;align=left;verticalAlign=top;spacingLeft=4;spacingRight=4;overflow=hidden;rotatable=0;points=[[0,0.5],[1,0.5]];portConstraint=eastwest;whiteSpace=wrap;html=1;" vertex="1" parent="sLSlKUdKtj0iEJOvzMcT-21">
          <mxGeometry y="168" width="310" height="26" as="geometry" />
        </mxCell>
        <mxCell id="sLSlKUdKtj0iEJOvzMcT-29" style="edgeStyle=orthogonalEdgeStyle;rounded=0;orthogonalLoop=1;jettySize=auto;html=1;" edge="1" parent="1" source="sLSlKUdKtj0iEJOvzMcT-25" target="sLSlKUdKtj0iEJOvzMcT-17">
          <mxGeometry relative="1" as="geometry" />
        </mxCell>
        <mxCell id="sLSlKUdKtj0iEJOvzMcT-25" value="Floor" style="swimlane;fontStyle=1;align=center;verticalAlign=top;childLayout=stackLayout;horizontal=1;startSize=26;horizontalStack=0;resizeParent=1;resizeParentMax=0;resizeLast=0;collapsible=1;marginBottom=0;whiteSpace=wrap;html=1;" vertex="1" parent="1">
          <mxGeometry x="80" y="160" width="200" height="124" as="geometry" />
        </mxCell>
        <mxCell id="sLSlKUdKtj0iEJOvzMcT-26" value="- floor: int&lt;br&gt;- sensorSocket: DatagramSocket&lt;br&gt;- floorSocket: DatagramSocket" style="text;strokeColor=none;fillColor=none;align=left;verticalAlign=top;spacingLeft=4;spacingRight=4;overflow=hidden;rotatable=0;points=[[0,0.5],[1,0.5]];portConstraint=eastwest;whiteSpace=wrap;html=1;" vertex="1" parent="sLSlKUdKtj0iEJOvzMcT-25">
          <mxGeometry y="26" width="200" height="64" as="geometry" />
        </mxCell>
        <mxCell id="sLSlKUdKtj0iEJOvzMcT-27" value="" style="line;strokeWidth=1;fillColor=none;align=left;verticalAlign=middle;spacingTop=-1;spacingLeft=3;spacingRight=3;rotatable=0;labelPosition=right;points=[];portConstraint=eastwest;strokeColor=inherit;" vertex="1" parent="sLSlKUdKtj0iEJOvzMcT-25">
          <mxGeometry y="90" width="200" height="8" as="geometry" />
        </mxCell>
        <mxCell id="sLSlKUdKtj0iEJOvzMcT-28" value="+ method(type): type" style="text;strokeColor=none;fillColor=none;align=left;verticalAlign=top;spacingLeft=4;spacingRight=4;overflow=hidden;rotatable=0;points=[[0,0.5],[1,0.5]];portConstraint=eastwest;whiteSpace=wrap;html=1;" vertex="1" parent="sLSlKUdKtj0iEJOvzMcT-25">
          <mxGeometry y="98" width="200" height="26" as="geometry" />
        </mxCell>
        <mxCell id="sLSlKUdKtj0iEJOvzMcT-30" value="Scheduler" style="swimlane;fontStyle=1;align=center;verticalAlign=top;childLayout=stackLayout;horizontal=1;startSize=26;horizontalStack=0;resizeParent=1;resizeParentMax=0;resizeLast=0;collapsible=1;marginBottom=0;whiteSpace=wrap;html=1;" vertex="1" parent="1">
          <mxGeometry x="355" y="130" width="230" height="164" as="geometry" />
        </mxCell>
        <mxCell id="sLSlKUdKtj0iEJOvzMcT-31" value="- elevatorSockets: DatagramSocket[]&lt;br&gt;" style="text;strokeColor=none;fillColor=none;align=left;verticalAlign=top;spacingLeft=4;spacingRight=4;overflow=hidden;rotatable=0;points=[[0,0.5],[1,0.5]];portConstraint=eastwest;whiteSpace=wrap;html=1;" vertex="1" parent="sLSlKUdKtj0iEJOvzMcT-30">
          <mxGeometry y="26" width="230" height="104" as="geometry" />
        </mxCell>
        <mxCell id="sLSlKUdKtj0iEJOvzMcT-32" value="" style="line;strokeWidth=1;fillColor=none;align=left;verticalAlign=middle;spacingTop=-1;spacingLeft=3;spacingRight=3;rotatable=0;labelPosition=right;points=[];portConstraint=eastwest;strokeColor=inherit;" vertex="1" parent="sLSlKUdKtj0iEJOvzMcT-30">
          <mxGeometry y="130" width="230" height="8" as="geometry" />
        </mxCell>
        <mxCell id="sLSlKUdKtj0iEJOvzMcT-33" value="+ method(type): type" style="text;strokeColor=none;fillColor=none;align=left;verticalAlign=top;spacingLeft=4;spacingRight=4;overflow=hidden;rotatable=0;points=[[0,0.5],[1,0.5]];portConstraint=eastwest;whiteSpace=wrap;html=1;" vertex="1" parent="sLSlKUdKtj0iEJOvzMcT-30">
          <mxGeometry y="138" width="230" height="26" as="geometry" />
        </mxCell>
        <mxCell id="sLSlKUdKtj0iEJOvzMcT-36" value="&lt;i&gt;Payload&lt;/i&gt;" style="swimlane;fontStyle=1;align=center;verticalAlign=top;childLayout=stackLayout;horizontal=1;startSize=26;horizontalStack=0;resizeParent=1;resizeParentMax=0;resizeLast=0;collapsible=1;marginBottom=0;whiteSpace=wrap;html=1;" vertex="1" parent="1">
          <mxGeometry x="355" y="440" width="170" height="34" as="geometry">
            <mxRectangle x="370" y="342" width="90" height="30" as="alternateBounds" />
          </mxGeometry>
        </mxCell>
        <mxCell id="sLSlKUdKtj0iEJOvzMcT-38" value="" style="line;strokeWidth=1;fillColor=none;align=left;verticalAlign=middle;spacingTop=-1;spacingLeft=3;spacingRight=3;rotatable=0;labelPosition=right;points=[];portConstraint=eastwest;strokeColor=inherit;" vertex="1" parent="sLSlKUdKtj0iEJOvzMcT-36">
          <mxGeometry y="26" width="170" height="8" as="geometry" />
        </mxCell>
        <mxCell id="sLSlKUdKtj0iEJOvzMcT-81" style="edgeStyle=orthogonalEdgeStyle;rounded=0;orthogonalLoop=1;jettySize=auto;html=1;" edge="1" parent="1" source="sLSlKUdKtj0iEJOvzMcT-52" target="sLSlKUdKtj0iEJOvzMcT-36">
          <mxGeometry relative="1" as="geometry">
            <Array as="points">
              <mxPoint x="385" y="530" />
              <mxPoint x="390" y="530" />
            </Array>
          </mxGeometry>
        </mxCell>
        <mxCell id="sLSlKUdKtj0iEJOvzMcT-52" value="RequestPayload" style="swimlane;fontStyle=1;align=center;verticalAlign=top;childLayout=stackLayout;horizontal=1;startSize=26;horizontalStack=0;resizeParent=1;resizeParentMax=0;resizeLast=0;collapsible=1;marginBottom=0;whiteSpace=wrap;html=1;" vertex="1" parent="1">
          <mxGeometry x="310" y="550" width="150" height="110" as="geometry">
            <mxRectangle x="310" y="550" width="130" height="30" as="alternateBounds" />
          </mxGeometry>
        </mxCell>
        <mxCell id="sLSlKUdKtj0iEJOvzMcT-53" value="- floor: int&lt;br&gt;- direction: Direction" style="text;strokeColor=none;fillColor=none;align=left;verticalAlign=top;spacingLeft=4;spacingRight=4;overflow=hidden;rotatable=0;points=[[0,0.5],[1,0.5]];portConstraint=eastwest;whiteSpace=wrap;html=1;" vertex="1" parent="sLSlKUdKtj0iEJOvzMcT-52">
          <mxGeometry y="26" width="150" height="34" as="geometry" />
        </mxCell>
        <mxCell id="sLSlKUdKtj0iEJOvzMcT-54" value="" style="line;strokeWidth=1;fillColor=none;align=left;verticalAlign=middle;spacingTop=-1;spacingLeft=3;spacingRight=3;rotatable=0;labelPosition=right;points=[];portConstraint=eastwest;strokeColor=inherit;" vertex="1" parent="sLSlKUdKtj0iEJOvzMcT-52">
          <mxGeometry y="60" width="150" height="8" as="geometry" />
        </mxCell>
        <mxCell id="sLSlKUdKtj0iEJOvzMcT-55" value="+ getFloor(): int&lt;br&gt;+ getDirection(): Direction" style="text;strokeColor=none;fillColor=none;align=left;verticalAlign=top;spacingLeft=4;spacingRight=4;overflow=hidden;rotatable=0;points=[[0,0.5],[1,0.5]];portConstraint=eastwest;whiteSpace=wrap;html=1;" vertex="1" parent="sLSlKUdKtj0iEJOvzMcT-52">
          <mxGeometry y="68" width="150" height="42" as="geometry" />
        </mxCell>
        <mxCell id="sLSlKUdKtj0iEJOvzMcT-82" style="edgeStyle=orthogonalEdgeStyle;rounded=0;orthogonalLoop=1;jettySize=auto;html=1;" edge="1" parent="1" source="sLSlKUdKtj0iEJOvzMcT-56" target="sLSlKUdKtj0iEJOvzMcT-36">
          <mxGeometry relative="1" as="geometry">
            <Array as="points">
              <mxPoint x="545" y="530" />
              <mxPoint x="500" y="530" />
            </Array>
          </mxGeometry>
        </mxCell>
        <mxCell id="sLSlKUdKtj0iEJOvzMcT-56" value="SensorPayload" style="swimlane;fontStyle=1;align=center;verticalAlign=top;childLayout=stackLayout;horizontal=1;startSize=26;horizontalStack=0;resizeParent=1;resizeParentMax=0;resizeLast=0;collapsible=1;marginBottom=0;whiteSpace=wrap;html=1;" vertex="1" parent="1">
          <mxGeometry x="470" y="550" width="150" height="58" as="geometry" />
        </mxCell>
        <mxCell id="sLSlKUdKtj0iEJOvzMcT-85" value="- floor: int" style="text;strokeColor=none;fillColor=none;align=left;verticalAlign=top;spacingLeft=4;spacingRight=4;overflow=hidden;rotatable=0;points=[[0,0.5],[1,0.5]];portConstraint=eastwest;whiteSpace=wrap;html=1;" vertex="1" parent="sLSlKUdKtj0iEJOvzMcT-56">
          <mxGeometry y="26" width="150" height="24" as="geometry" />
        </mxCell>
        <mxCell id="sLSlKUdKtj0iEJOvzMcT-58" value="" style="line;strokeWidth=1;fillColor=none;align=left;verticalAlign=middle;spacingTop=-1;spacingLeft=3;spacingRight=3;rotatable=0;labelPosition=right;points=[];portConstraint=eastwest;strokeColor=inherit;" vertex="1" parent="sLSlKUdKtj0iEJOvzMcT-56">
          <mxGeometry y="50" width="150" height="8" as="geometry" />
        </mxCell>
        <mxCell id="sLSlKUdKtj0iEJOvzMcT-83" style="edgeStyle=orthogonalEdgeStyle;rounded=0;orthogonalLoop=1;jettySize=auto;html=1;" edge="1" parent="1" source="sLSlKUdKtj0iEJOvzMcT-60" target="sLSlKUdKtj0iEJOvzMcT-36">
          <mxGeometry relative="1" as="geometry">
            <Array as="points">
              <mxPoint x="705" y="520" />
              <mxPoint x="510" y="520" />
            </Array>
          </mxGeometry>
        </mxCell>
        <mxCell id="sLSlKUdKtj0iEJOvzMcT-60" value="AltitudePayload" style="swimlane;fontStyle=1;align=center;verticalAlign=top;childLayout=stackLayout;horizontal=1;startSize=26;horizontalStack=0;resizeParent=1;resizeParentMax=0;resizeLast=0;collapsible=1;marginBottom=0;whiteSpace=wrap;html=1;" vertex="1" parent="1">
          <mxGeometry x="630" y="550" width="150" height="94" as="geometry" />
        </mxCell>
        <mxCell id="sLSlKUdKtj0iEJOvzMcT-61" value="- altitude: float" style="text;strokeColor=none;fillColor=none;align=left;verticalAlign=top;spacingLeft=4;spacingRight=4;overflow=hidden;rotatable=0;points=[[0,0.5],[1,0.5]];portConstraint=eastwest;whiteSpace=wrap;html=1;" vertex="1" parent="sLSlKUdKtj0iEJOvzMcT-60">
          <mxGeometry y="26" width="150" height="34" as="geometry" />
        </mxCell>
        <mxCell id="sLSlKUdKtj0iEJOvzMcT-62" value="" style="line;strokeWidth=1;fillColor=none;align=left;verticalAlign=middle;spacingTop=-1;spacingLeft=3;spacingRight=3;rotatable=0;labelPosition=right;points=[];portConstraint=eastwest;strokeColor=inherit;" vertex="1" parent="sLSlKUdKtj0iEJOvzMcT-60">
          <mxGeometry y="60" width="150" height="8" as="geometry" />
        </mxCell>
        <mxCell id="sLSlKUdKtj0iEJOvzMcT-63" value="+ getAltitude(): float" style="text;strokeColor=none;fillColor=none;align=left;verticalAlign=top;spacingLeft=4;spacingRight=4;overflow=hidden;rotatable=0;points=[[0,0.5],[1,0.5]];portConstraint=eastwest;whiteSpace=wrap;html=1;" vertex="1" parent="sLSlKUdKtj0iEJOvzMcT-60">
          <mxGeometry y="68" width="150" height="26" as="geometry" />
        </mxCell>
        <mxCell id="sLSlKUdKtj0iEJOvzMcT-65" style="edgeStyle=orthogonalEdgeStyle;rounded=0;orthogonalLoop=1;jettySize=auto;html=1;" edge="1" parent="1" source="sLSlKUdKtj0iEJOvzMcT-64" target="sLSlKUdKtj0iEJOvzMcT-56">
          <mxGeometry relative="1" as="geometry" />
        </mxCell>
        <mxCell id="sLSlKUdKtj0iEJOvzMcT-64" value="if elevator crosses the floor sensor" style="text;html=1;align=center;verticalAlign=middle;resizable=0;points=[];autosize=1;strokeColor=none;fillColor=none;" vertex="1" parent="1">
          <mxGeometry x="440" y="660" width="210" height="30" as="geometry" />
        </mxCell>
        <mxCell id="sLSlKUdKtj0iEJOvzMcT-70" style="edgeStyle=orthogonalEdgeStyle;rounded=0;orthogonalLoop=1;jettySize=auto;html=1;endArrow=block;endFill=1;" edge="1" parent="1" source="sLSlKUdKtj0iEJOvzMcT-66" target="sLSlKUdKtj0iEJOvzMcT-52">
          <mxGeometry relative="1" as="geometry" />
        </mxCell>
        <mxCell id="sLSlKUdKtj0iEJOvzMcT-66" value="Direction" style="swimlane;fontStyle=1;align=center;verticalAlign=top;childLayout=stackLayout;horizontal=1;startSize=26;horizontalStack=0;resizeParent=1;resizeParentMax=0;resizeLast=0;collapsible=1;marginBottom=0;whiteSpace=wrap;html=1;" vertex="1" parent="1">
          <mxGeometry x="335" y="690" width="100" height="58" as="geometry" />
        </mxCell>
        <mxCell id="sLSlKUdKtj0iEJOvzMcT-67" value="UP, DOWN" style="text;strokeColor=none;fillColor=none;align=left;verticalAlign=top;spacingLeft=4;spacingRight=4;overflow=hidden;rotatable=0;points=[[0,0.5],[1,0.5]];portConstraint=eastwest;whiteSpace=wrap;html=1;" vertex="1" parent="sLSlKUdKtj0iEJOvzMcT-66">
          <mxGeometry y="26" width="100" height="24" as="geometry" />
        </mxCell>
        <mxCell id="sLSlKUdKtj0iEJOvzMcT-68" value="" style="line;strokeWidth=1;fillColor=none;align=left;verticalAlign=middle;spacingTop=-1;spacingLeft=3;spacingRight=3;rotatable=0;labelPosition=right;points=[];portConstraint=eastwest;strokeColor=inherit;" vertex="1" parent="sLSlKUdKtj0iEJOvzMcT-66">
          <mxGeometry y="50" width="100" height="8" as="geometry" />
        </mxCell>
        <mxCell id="sLSlKUdKtj0iEJOvzMcT-84" value="elevatorAlt &amp;lt;= alt+range and elevatorAlt &amp;gt;= alt-range" style="text;html=1;align=center;verticalAlign=middle;resizable=0;points=[];autosize=1;strokeColor=none;fillColor=none;" vertex="1" parent="1">
          <mxGeometry y="480" width="300" height="30" as="geometry" />
        </mxCell>
        <mxCell id="sLSlKUdKtj0iEJOvzMcT-90" style="edgeStyle=orthogonalEdgeStyle;rounded=0;orthogonalLoop=1;jettySize=auto;html=1;" edge="1" parent="1" source="sLSlKUdKtj0iEJOvzMcT-86" target="sLSlKUdKtj0iEJOvzMcT-36">
          <mxGeometry relative="1" as="geometry">
            <Array as="points">
              <mxPoint x="202" y="520" />
              <mxPoint x="380" y="520" />
            </Array>
          </mxGeometry>
        </mxCell>
        <mxCell id="sLSlKUdKtj0iEJOvzMcT-86" value="AddDestinationPayload" style="swimlane;fontStyle=1;align=center;verticalAlign=top;childLayout=stackLayout;horizontal=1;startSize=26;horizontalStack=0;resizeParent=1;resizeParentMax=0;resizeLast=0;collapsible=1;marginBottom=0;whiteSpace=wrap;html=1;" vertex="1" parent="1">
          <mxGeometry x="110" y="550" width="183.75" height="120" as="geometry">
            <mxRectangle x="310" y="550" width="130" height="30" as="alternateBounds" />
          </mxGeometry>
        </mxCell>
        <mxCell id="sLSlKUdKtj0iEJOvzMcT-87" value="- floor: int&lt;br&gt;- position: int" style="text;strokeColor=none;fillColor=none;align=left;verticalAlign=top;spacingLeft=4;spacingRight=4;overflow=hidden;rotatable=0;points=[[0,0.5],[1,0.5]];portConstraint=eastwest;whiteSpace=wrap;html=1;" vertex="1" parent="sLSlKUdKtj0iEJOvzMcT-86">
          <mxGeometry y="26" width="183.75" height="34" as="geometry" />
        </mxCell>
        <mxCell id="sLSlKUdKtj0iEJOvzMcT-88" value="" style="line;strokeWidth=1;fillColor=none;align=left;verticalAlign=middle;spacingTop=-1;spacingLeft=3;spacingRight=3;rotatable=0;labelPosition=right;points=[];portConstraint=eastwest;strokeColor=inherit;" vertex="1" parent="sLSlKUdKtj0iEJOvzMcT-86">
          <mxGeometry y="60" width="183.75" height="8" as="geometry" />
        </mxCell>
        <mxCell id="sLSlKUdKtj0iEJOvzMcT-89" value="+ getFloor(): int&lt;br&gt;+ getPosition(): int" style="text;strokeColor=none;fillColor=none;align=left;verticalAlign=top;spacingLeft=4;spacingRight=4;overflow=hidden;rotatable=0;points=[[0,0.5],[1,0.5]];portConstraint=eastwest;whiteSpace=wrap;html=1;" vertex="1" parent="sLSlKUdKtj0iEJOvzMcT-86">
          <mxGeometry y="68" width="183.75" height="52" as="geometry" />
        </mxCell>
      </root>
    </mxGraphModel>
  </diagram>
</mxfile>
